<svg viewBox="0 0 96 96" xmlns="http://www.w3.org/2000/svg" xmlns:xlink="http://www.w3.org/1999/xlink" id="Icons_Database_M" overflow="hidden"><g id="Icons"><path d="M77 79 77 19C77 13.154 62.059 10 48 10 33.941 10 19 13.154 19 19L19 79C19 84.846 33.941 88 48 88 62.059 88 77 84.846 77 79ZM48 12C63.453 12 75 15.7 75 19 75 22.3 63.453 26 48 26 32.547 26 21 22.3 21 19 21 15.7 32.547 12 48 12ZM21 22.46C25.529 26.08 37.033 28 48 28 58.967 28 70.471 26.08 75 22.46L75 39C75 42.3 63.453 46 48 46 32.547 46 21 42.3 21 39ZM21 42.46C25.529 46.08 37.033 48 48 48 58.967 48 70.471 46.08 75 42.46L75 59C75 62.3 63.453 66 48 66 32.547 66 21 62.3 21 59ZM21 79 21 62.46C25.529 66.08 37.033 68 48 68 58.967 68 70.471 66.08 75 62.46L75 79C75 82.3 63.453 86 48 86 32.547 86 21 82.3 21 79Z"/><circle cx="68" cy="36" r="2"/><circle cx="68" cy="56" r="2"/><circle cx="68" cy="76" r="2"/></g></svg>