<svg viewBox="0 0 96 96" xmlns="http://www.w3.org/2000/svg" xmlns:xlink="http://www.w3.org/1999/xlink" id="Icons_Cloud_M" overflow="hidden"><g id="Icons"><path d="M20.0014 71.92C21.0125 71.9751 23.9625 72 23.9625 72L78.0043 72C84.6558 71.9737 90.0266 66.5602 90.0002 59.9087 89.9742 53.3334 84.6792 47.9942 78.1043 47.9136L77.1043 47.9136C77.095 43.0678 74.7493 38.524 70.8043 35.71 66.8074 32.9135 61.7107 32.2067 57.1036 33.81 52.58 24.9655 41.7429 21.4627 32.8984 25.9863 26.9136 29.0473 23.1351 35.1899 23.1019 41.912L23.1019 42.112C22.3173 41.9836 21.5237 41.919 20.7287 41.9187 12.429 41.9091 5.693 48.6295 5.68335 56.9291 5.68079 59.137 6.16475 61.3183 7.1008 63.3179 9.5301 68.3062 14.4625 71.5952 20.0014 71.92ZM10.2991 49.1162C12.7941 45.8756 16.6385 43.9595 20.7281 43.9185 21.4148 43.9191 22.1003 43.9749 22.7781 44.0854L25.1012 44.4654 25.1012 41.9116C25.1555 33.0807 32.3584 25.966 41.1893 26.0203 47.1555 26.057 52.605 29.4123 55.324 34.7231L56.1182 36.27 57.7604 35.6987C64.5083 33.2862 71.9342 36.8006 74.3468 43.5485 74.8476 44.9493 75.1038 46.4259 75.1042 47.9136L75.1042 49.9136 78.1042 49.9136C83.6506 49.9952 88.0808 54.5576 87.9992 60.104 87.9187 65.5743 83.4751 69.974 78.0043 70L21.8922 70 20.11 69.9229C12.9411 69.6138 7.38013 63.5517 7.68922 56.3828 7.80264 53.7521 8.7127 51.218 10.2988 49.1162Z"/></g></svg>