<svg viewBox="0 0 96 96" xmlns="http://www.w3.org/2000/svg" xmlns:xlink="http://www.w3.org/1999/xlink" id="Icons_ElectricCar_M" overflow="hidden"><g id="Icons"><path d="M74.4054 57.1656C70.1749 56.3199 66.0599 59.0639 65.2142 63.2943 64.3686 67.5248 67.1125 71.6399 71.343 72.4855 75.5735 73.3312 79.6885 70.5872 80.5342 66.3568 80.7361 65.3464 80.7362 64.306 80.5344 63.2956 79.914 60.2035 77.4974 57.7865 74.4054 57.1656ZM74.2035 70.485C71.0726 71.2126 67.9447 69.2643 67.2172 66.1334 67.0157 65.2663 67.0158 64.3645 67.2175 63.4974 67.7102 61.343 69.3921 59.6604 71.5463 59.1669 74.677 58.4388 77.8053 60.3865 78.5333 63.5173 78.7352 64.3853 78.7351 65.288 78.5329 66.1559 78.0397 68.3099 76.3576 69.9919 74.2035 70.485Z"/><path d="M63.112 64 44.359 64C44.3819 64.2729 44.4008 64.5469 44.4008 64.8257 44.3985 65.2183 44.3728 65.6105 44.3236 66L63.1474 66C63.0982 65.6105 63.0725 65.2183 63.0702 64.8257 63.07 64.5469 63.0892 64.2729 63.112 64Z"/><path d="M82.3835 48.7676 75.5223 48.7676C75.5083 48.7671 75.4965 48.7595 75.4823 48.7595L75.1617 48.7595C74.2784 48.768 73.4335 48.3987 72.84 47.7444L61.9921 36.9805C60.6893 35.6873 58.9204 34.9734 57.0849 35L33.3985 35C31.5661 34.9894 29.8032 35.7007 28.4913 36.98L17.816 47.7444C17.1462 48.4016 16.7732 49.3034 16.7829 50.2417L16.7829 57 14.0048 57C12.3479 57 11.0048 55.6569 11.0048 54L11.0048 36.8989C13.331 36.4209 15.0016 34.3748 15.0048 32L15.0048 28 13.5048 28 13.5048 24C13.5048 23.4477 13.0571 23 12.5048 23 11.9525 23 11.5048 23.4477 11.5048 24L11.5048 28 8.5048 28 8.5048 24C8.5048 23.4477 8.05709 23 7.5048 23 6.95252 23 6.5048 23.4477 6.5048 24L6.5048 28 5.0048 28 5.0048 32C5.00797 34.3748 6.6786 36.4209 9.0048 36.8989L9.0048 54C9.0048 56.7614 11.2434 59 14.0048 59L16.7829 59 16.7829 59.1111C16.794 62.9111 19.8718 65.9889 23.6718 66L24.8677 66C24.8185 65.6105 24.7926 65.2183 24.7904 64.8257 24.7904 64.5469 24.8094 64.2729 24.8323 64L23.67 64C20.9709 63.9999 18.7828 61.8118 18.7828 59.1127L18.7828 50.76 75.1668 50.76C75.1953 50.76 75.2215 50.7681 75.2501 50.7681L82.3957 50.7681C86.0458 50.7681 89.0047 53.727 89.0048 57.3771L89.0048 62.5562C89.0045 63.3536 88.3579 63.9999 87.5605 64L82.6388 64C82.6617 64.2729 82.6806 64.5469 82.6806 64.8257 82.6783 65.2183 82.6526 65.6105 82.6034 66L87.5612 66C89.4607 65.9945 90.9993 64.4559 91.0048 62.5564L91.0048 57.3889C90.9909 52.6333 87.1391 48.7816 82.3835 48.7676ZM7.0048 31.8816 7.0048 30 13.0048 30 13.0048 32C13.0027 33.6595 11.6556 35.0031 9.99612 35.0009 9.79825 35.0007 9.60088 34.9809 9.4069 34.9418 7.98178 34.6205 6.97842 33.3423 7.0048 31.8816ZM60.5834 38.4 71.023 48.76 45.0048 48.76 45.0048 37 57.0848 37C58.3926 36.9732 59.6552 37.4784 60.5834 38.4ZM29.9056 38.3944C30.8412 37.4883 32.0961 36.9874 33.3985 37L43.0048 37 43.0048 48.76 19.65 48.76C19.6368 48.76 19.6336 48.7524 19.6429 48.743Z"/><path d="M36.1254 57.1656C31.8949 56.32 27.7799 59.064 26.9343 63.2945 26.0887 67.525 28.8327 71.64 33.0632 72.4856 37.2937 73.3312 41.4087 70.5872 42.2543 66.3567 42.4562 65.3463 42.4563 64.306 42.2545 63.2956 41.6341 60.2035 39.2174 57.7864 36.1254 57.1656ZM35.9237 70.485C32.7928 71.2126 29.6649 69.2643 28.9374 66.1335 28.7358 65.2663 28.7359 64.3644 28.9377 63.4972 29.4305 61.343 31.1124 59.6606 33.2665 59.1672 36.3973 58.4391 39.5255 60.3869 40.2535 63.5176 40.4554 64.3856 40.4552 65.2882 40.2531 66.1561 39.7596 68.31 38.0776 69.9918 35.9237 70.485Z"/></g></svg>